<?xml version="1.0" encoding="utf-8"?>
<!-- Generator: Adobe Illustrator 23.0.0, SVG Export Plug-In . SVG Version: 6.00 Build 0)  -->
<svg version="1.1" id="Layer_1" xmlns="http://www.w3.org/2000/svg" xmlns:xlink="http://www.w3.org/1999/xlink" x="0px" y="0px"
	 viewBox="0 0 276 196" style="enable-background:new 0 0 276 196;" xml:space="preserve">
<style type="text/css">
	.st0{fill:#FFFFFF;}
	.st1{fill:#202020;}
	.st2{fill:#00CAFF;}
	.st3{fill:#002955;}
	.st4{fill:#FF727F;}
	.st5{fill:#0070E1;}
	.st6{fill:#FFE200;}
</style>
<g>
	<rect x="8" y="5" class="st0" width="260" height="186"/>
	<g>
		<g>
			<path class="st1" d="M267.7,182.1c-0.1-58.8-0.2-117.6-0.3-176.5C181.2,5.6,95,5.7,8.7,5.7c0,61.5-0.1,123.1-0.1,184.6
				c83.6,0.1,167.2,0.3,250.8,0.4c11.3,0,11.6,0.5,0,0.6c-84,0.1-168,0.2-252.1,0.4c0-62.5-0.1-124.9-0.1-187.4
				c87.1,0,174.3,0.1,261.4,0.1c-0.1,59.2-0.2,118.5-0.3,177.7C268.3,194.3,267.8,193.6,267.7,182.1z"/>
		</g>
	</g>
</g>
<g transform="translate(227 119)">
	<g>
		<path class="st2" d="M47.2,20.2c1.5,3.8,2.2,12.5-7,16c3.5,9-1.8,14-5.5,15.2l-20,7.8L0,21.2l41.2-16L47.2,20.2L47.2,20.2z"/>
	</g>
	<path class="st3" d="M47.4,29.5c-0.9,2.7-6.2,4-10.4,5.8c1.8,4.2,4.9,8.3,3.7,11L47.4,29.5L47.4,29.5z"/>
	<g>
		<polygon class="st0" points="7.2,15 32.2,5.2 34.5,11 9.2,20.8 		"/>
		<g>
			<g>
				<path class="st1" d="M7.7,15.5l1.8,4.7L9.9,20l0.8-0.3l1.6-0.6l3.1-1.3l6.3-2.5l6.3-2.5l5.6-2.2l-1.7-4.4
					c-3.9,1.4-7.8,2.9-11.6,4.3C16.2,12,12.1,13.5,8,15c-0.8,0.3-1-0.2-0.2-0.5c4-1.7,8.1-3.3,12.1-5l6-2.5l6.8-2.7l2.8,7.1l-7,2.7
					l-6.3,2.4c-4.4,1.6-8.8,3.2-13.1,4.8l-1-3l-0.8-2.6C6.9,14.9,7.4,14.7,7.7,15.5z"/>
			</g>
		</g>
	</g>
</g>
<g>
	<g>
		<g>
			<path class="st1" d="M264.7,141.7c-7,3.6-14.5,6.4-22.1,8.4c-0.3,0.1-0.5-0.4-0.2-0.5c7.2-3.1,14.5-6,22.1-8.4
				C264.8,141.1,265,141.6,264.7,141.7z"/>
		</g>
	</g>
</g>
<g>
	<g transform="translate(144.5 16.5)">
		<g>
			<g>
				<g>
					<path class="st1" d="M45.6,24.6l-0.2-14.3C31,10.4,16.5,10.5,2,10.5v40h13.9h7.2c2.3-0.1,4.6-0.9,6.5-2.3
						c1.9-1.4,3.3-3.4,3.9-5.6l0.2-0.8l0.1-0.9c0.1-0.6,0.1-1.2,0.2-1.8v-0.6c0-0.1,0-0.3,0.1-0.3h0.4l1-0.1c0.6,0,1.2-0.1,1.7-0.2
						c0.6-0.1,1.1-0.3,1.7-0.5c0.5-0.3,1.1-0.4,1.6-0.8c1-0.6,1.9-1.4,2.6-2.4c1.4-1.9,2.1-4.2,2.4-6.6c0.1-1,0.2-1.5,0.3-1.5
						s0.2,0.5,0.1,1.6c-0.2,2.4-0.9,4.9-2.3,6.9c-1.4,2-3.7,3.4-6.1,3.9c-0.6,0.1-1.2,0.3-1.8,0.3h-0.8h-0.1v0.1v0.3
						c0,0.6,0,1.2-0.2,1.8l-0.2,1l-0.2,0.9c-0.6,2.4-2.1,4.6-4.1,6.1s-4.4,2.3-6.9,2.5c-2.4,0-4.8,0-7.2,0H1c0-14,0-28,0-42
						c15,0,30,0.1,45.1,0.2l-0.1,15C45.9,26.8,45.6,26.7,45.6,24.6z"/>
				</g>
			</g>
		</g>
		<path class="st3" d="M42.5,35.8c-1.8,1.8-7,1.2-11.2,1.2c0,4.2,1,9-1,11L42.5,35.8L42.5,35.8z"/>
		<g>
			<rect x="10.2" y="6.8" class="st0" width="27" height="6"/>
			<g>
				<g>
					<path class="st1" d="M10.5,7.4l0.1,4.9H11h0.8h1.7l3.4-0.1l6.7-0.1l6.8-0.1h6V7.5c-4.2-0.1-8.3-0.1-12.5-0.2
						c-4.2-0.1-8.6-0.2-13-0.3c-0.8,0-0.9-0.5,0-0.6c4.4-0.1,8.8-0.2,13.2-0.3L30.7,6H38v7.5h-7.5l-6.8-0.1L17,13.3l-7.2-0.1
						l0.1-3.1L10,7.4C10,6.5,10.5,6.6,10.5,7.4z"/>
				</g>
			</g>
		</g>
	</g>
	<g>
		<g>
			<g>
				<path class="st1" d="M180.6,38.5c-8.1,0.6-16.3,0.5-24.5-0.1c-0.3,0-0.3-0.5,0-0.6c8.2-0.5,16.3-0.6,24.5,0.1
					C180.9,38,180.9,38.5,180.6,38.5z"/>
			</g>
		</g>
	</g>
	<g>
		<g>
			<g>
				<path class="st1" d="M179,47.6c-6.8,0.6-13.7,0.6-20.6,0c-0.3,0-0.3-0.5,0-0.6c6.9-0.6,13.7-0.7,20.6,0
					C179.3,47.1,179.3,47.6,179,47.6z"/>
			</g>
		</g>
	</g>
</g>
<g>
	<g transform="translate(144.5 16.5)">
		<g>
			<path class="st2" d="M-15.1,78.7c0,4-1.6,12.3-11.3,12.3c0,9.8-7.7,12.4-11.7,12.4h-21.2v-41h44.2L-15.1,78.7L-15.1,78.7z"/>
		</g>
		<path class="st3" d="M-18.4,88.2c-1.8,1.8-7,1.2-11.2,1.2c0,4.2,1,9-1,11L-18.4,88.2L-18.4,88.2z"/>
		<g>
			<rect x="-50.6" y="59.2" class="st0" width="27" height="6"/>
			<g>
				<g>
					<path class="st1" d="M-50.4,59.9l0.1,4.9h0.4h0.8h1.7l3.4-0.1l6.7-0.1l6.8-0.1h6V60c-4.2-0.1-8.3-0.1-12.5-0.2
						c-4.4-0.1-8.8-0.2-13.2-0.3c-0.8,0-0.9-0.5,0-0.6c4.4-0.1,8.8-0.2,13.2-0.3l6.6-0.1l7.3-0.1v7.5h-7.5l-6.8-0.1l-6.7-0.1
						l-7.2-0.1l0.1-3.1l0.1-2.7C-50.9,59-50.4,59-50.4,59.9z"/>
				</g>
			</g>
		</g>
	</g>
	<g>
		<g>
			<g>
				<path class="st1" d="M119.7,91c-8.1,0.6-16.3,0.5-24.5-0.1c-0.3,0-0.3-0.5,0-0.6c8.2-0.5,16.3-0.6,24.5,0.1
					C120,90.5,120,91,119.7,91z"/>
			</g>
		</g>
	</g>
	<g>
		<g>
			<g>
				<path class="st1" d="M118.1,100.1c-6.8,0.6-13.7,0.6-20.6,0c-0.3,0-0.3-0.5,0-0.6c6.9-0.6,13.7-0.7,20.6,0
					C118.4,99.6,118.4,100.1,118.1,100.1z"/>
			</g>
		</g>
	</g>
</g>
<g>
	<g id="Card_1_8_">
		<g>
			<g>
				<g>
					<g>
						<g>
							<rect x="24.8" y="26.7" class="st4" width="43.5" height="40.5"/>
						</g>
						<g>
							<rect x="33.3" y="23.8" class="st0" width="26.5" height="5.9"/>
							<g>
								<g>
									<path class="st1" d="M33.6,24.4l0.1,4.9l6.3-0.1l6.6-0.1c4.2,0,8.4,0,12.7-0.1v-4.7c-4.1,0-8.2-0.1-12.4-0.1
										C42.6,24.1,38.3,24,34,24c-0.8,0-0.8-0.4,0-0.4c4.3-0.1,8.6-0.2,12.9-0.2c4.5,0,9-0.1,13.5-0.1v7.1H46.5
										c-4.5-0.1-9.1-0.1-13.6-0.2l0.1-5.6C33.1,23.5,33.5,23.6,33.6,24.4z"/>
								</g>
							</g>
						</g>
					</g>
				</g>
			</g>
		</g>
	</g>
	<g>
		<g>
			<g>
				<path class="st1" d="M60.1,40.1c-9.1,0.5-18.2,0.5-27.3,0c-0.4,0-0.4-0.4,0-0.4c9.1-0.5,18.2-0.5,27.3,0
					C60.5,39.7,60.5,40.1,60.1,40.1z"/>
			</g>
		</g>
	</g>
	<g>
		<g>
			<g>
				<path class="st1" d="M59.9,48.6c-9.1,0.5-18.2,0.5-27.3,0c-0.4,0-0.4-0.4,0-0.4c9.1-0.5,18.2-0.5,27.3,0
					C60.3,48.1,60.3,48.5,59.9,48.6z"/>
			</g>
		</g>
	</g>
</g>
<g>
	<g id="Card_1_3_">
		<g>
			<g>
				<g>
					<g>
						<g>
							<rect x="24.8" y="79.8" class="st0" width="43.5" height="40.5"/>
							<g>
								<g>
									<path class="st1" d="M25,81.5c0.1,12.7,0.2,25.5,0.4,38.2l21.1-0.1h21l0.1-39.1c-13.7-0.1-27.5-0.2-41.2-0.3
										c-2.1,0-2.2-0.5,0-0.6l42.5-0.4c0.1,14,0.1,27.9,0.2,41.9c-15,0-29.9,0-44.8-0.1l0.1-20.1l0.2-19.4
										C24.5,79.2,25,79.3,25,81.5z"/>
								</g>
							</g>
						</g>
						<g>
							<rect x="33.3" y="76.9" class="st0" width="26.5" height="5.9"/>
							<g>
								<g>
									<path class="st1" d="M33.6,77.5l0.1,4.9l6.3-0.1l6.6-0.1c4.2,0,8.4,0,12.7-0.1v-4.7c-4.1,0-8.2-0.1-12.4-0.1
										c-4.3-0.1-8.6-0.2-12.9-0.2c-0.8,0-0.8-0.4,0-0.4c4.3-0.1,8.6-0.2,12.9-0.2c4.5,0,9-0.1,13.5-0.1v7.1H46.5
										c-4.5-0.1-9.1-0.1-13.6-0.2l0.1-5.6C33.1,76.6,33.5,76.7,33.6,77.5z"/>
								</g>
							</g>
						</g>
					</g>
				</g>
			</g>
		</g>
	</g>
	<g>
		<g>
			<g>
				<path class="st1" d="M60.1,93.2c-9.1,0.5-18.2,0.5-27.3,0c-0.4,0-0.4-0.4,0-0.4c9.1-0.5,18.2-0.5,27.3,0
					C60.5,92.7,60.5,93.2,60.1,93.2z"/>
			</g>
		</g>
	</g>
	<g>
		<g>
			<g>
				<path class="st1" d="M59.9,101.6c-9.1,0.5-18.2,0.5-27.3,0c-0.4,0-0.4-0.4,0-0.4c9.1-0.5,18.2-0.5,27.3,0
					C60.3,101.2,60.3,101.6,59.9,101.6z"/>
			</g>
		</g>
	</g>
</g>
<g>
	<g id="Card_1_11_">
		<g>
			<g>
				<g>
					<g>
						<g>
							<rect x="205.1" y="79.8" class="st0" width="43.5" height="40.5"/>
							<g>
								<g>
									<path class="st1" d="M205.3,81.5c0.1,12.7,0.2,25.5,0.4,38.2l21.1-0.1h21l0.1-39.1c-13.7-0.1-27.5-0.2-41.2-0.3
										c-2.1,0-2.2-0.5,0-0.6l42.5-0.4c0.1,14,0.1,27.9,0.2,41.9c-15,0-29.9,0-44.8-0.1l0.1-20.1l0.2-19.4
										C204.8,79.2,205.3,79.3,205.3,81.5z"/>
								</g>
							</g>
						</g>
						<g>
							<rect x="213.6" y="76.9" class="st0" width="26.5" height="5.9"/>
							<g>
								<g>
									<path class="st1" d="M213.9,77.5l0.1,4.9l6.3-0.1l6.6-0.1c4.2,0,8.4,0,12.7-0.1v-4.7c-4.1,0-8.2-0.1-12.4-0.1
										c-4.3-0.1-8.6-0.2-12.9-0.2c-0.8,0-0.8-0.4,0-0.4c4.3-0.1,8.6-0.2,12.9-0.2c4.5,0,9-0.1,13.5-0.1v7.1h-13.9
										c-4.5-0.1-9.1-0.1-13.6-0.2l0.1-5.6C213.4,76.6,213.8,76.7,213.9,77.5z"/>
								</g>
							</g>
						</g>
					</g>
				</g>
			</g>
		</g>
	</g>
</g>
<g>
	<g id="Card_1_4_">
		<g>
			<g>
				<g>
					<g>
						<g>
							<rect x="24.8" y="132.9" class="st5" width="43.5" height="40.5"/>
						</g>
						<g>
							<rect x="33.3" y="129.9" class="st0" width="26.5" height="5.9"/>
							<g>
								<g>
									<path class="st1" d="M33.6,130.6l0.1,4.9l6.3-0.1l6.6-0.1c4.2,0,8.4,0,12.7-0.1v-4.7c-4.1,0-8.2-0.1-12.4-0.1
										c-4.3-0.1-8.6-0.2-12.9-0.2c-0.8,0-0.8-0.4,0-0.4c4.3-0.1,8.6-0.2,12.9-0.2c4.5,0,9-0.1,13.5-0.1v7.1H46.5
										c-4.5-0.1-9.1-0.1-13.6-0.2l0.1-5.6C33.1,129.7,33.5,129.8,33.6,130.6z"/>
								</g>
							</g>
						</g>
					</g>
				</g>
			</g>
		</g>
	</g>
</g>
<g>
	<g id="Card_1_1_">
		<g>
			<g>
				<g>
					<g>
						<g>
							<rect x="85.4" y="26.7" class="st6" width="43.5" height="40.5"/>
						</g>
						<g>
							<rect x="94" y="23.8" class="st0" width="26.5" height="5.9"/>
							<g>
								<g>
									<path class="st1" d="M94.2,24.4l0.1,4.9l6.3-0.1l6.6-0.1c4.2,0,8.4,0,12.7-0.1v-4.7c-4.1,0-8.2-0.1-12.4-0.1
										c-4.3-0.1-8.6-0.2-12.9-0.2c-0.8,0-0.8-0.4,0-0.4c4.3-0.1,8.6-0.2,12.9-0.2c4.5,0,9-0.1,13.5-0.1v7.1h-13.9
										c-4.5-0.1-9.1-0.1-13.6-0.2l0.1-5.6C93.7,23.5,94.2,23.6,94.2,24.4z"/>
								</g>
							</g>
						</g>
					</g>
				</g>
			</g>
		</g>
	</g>
</g>
<g>
	<g id="Card_1_2_">
		<g>
			<g>
				<g>
					<g>
						<g>
							<rect x="205.3" y="26.7" class="st4" width="43.5" height="40.5"/>
						</g>
						<g>
							<rect x="213.8" y="23.8" class="st0" width="26.5" height="5.9"/>
							<g>
								<g>
									<path class="st1" d="M214.1,24.4l0.1,4.9l6.3-0.1l6.6-0.1c4.2,0,8.4,0,12.7-0.1v-4.7c-4.1,0-8.2-0.1-12.4-0.1
										c-4.3-0.1-8.6-0.2-12.9-0.2c-0.8,0-0.8-0.4,0-0.4c4.3-0.1,8.6-0.2,12.9-0.2c4.5,0,9-0.1,13.5-0.1v7.1H227
										c-4.5-0.1-9.1-0.1-13.6-0.2l0.1-5.6C213.6,23.5,214,23.6,214.1,24.4z"/>
								</g>
							</g>
						</g>
					</g>
				</g>
			</g>
		</g>
	</g>
	<g>
		<g>
			<g>
				<path class="st1" d="M240.6,40.1c-9.1,0.5-18.2,0.5-27.3,0c-0.4,0-0.4-0.4,0-0.4c9.1-0.5,18.2-0.5,27.3,0
					C241,39.7,241,40.1,240.6,40.1z"/>
			</g>
		</g>
	</g>
	<g>
		<g>
			<g>
				<path class="st1" d="M240.4,48.6c-9.1,0.5-18.2,0.5-27.3,0c-0.4,0-0.4-0.4,0-0.4c9.1-0.5,18.2-0.5,27.3,0
					C240.8,48.1,240.8,48.5,240.4,48.6z"/>
			</g>
		</g>
	</g>
</g>
<g>
	<g>
		<g>
			<g>
				<path class="st1" d="M59,153.2c-0.1-3.3-1.5-6.5-3.9-8.8c-2.3-2.3-5.5-3.6-8.8-3.6c-3.2,0-6.4,1.2-8.8,3.4
					c-2.3,2.2-3.8,5.3-3.9,8.5c-0.2,3.2,1,6.4,3.1,8.9c2.1,2.4,5.2,4,8.4,4.3s6.5-0.7,9.1-2.8c2.5-2,4.3-5.1,4.7-8.4
					c0.1-1,0.5-1,0.4,0c-0.3,3.4-2,6.7-4.6,8.9c-2.6,2.3-6.2,3.4-9.6,3.2c-3.5-0.2-6.9-1.9-9.2-4.5s-3.6-6.2-3.4-9.7
					c0.2-3.5,1.7-6.9,4.3-9.3c2.6-2.4,6.1-3.7,9.6-3.6c3.5,0.1,6.9,1.6,9.3,4.1c2.4,2.5,3.8,5.9,3.8,9.3
					C59.5,154.3,59.1,154.2,59,153.2z"/>
			</g>
		</g>
	</g>
	<g>
		<g>
			<g>
				<path class="st1" d="M53.6,148.7c-1.6,1.8-3.2,3.6-4.8,5.4c-0.8,0.9-1.7,1.7-2.5,2.6c-1,1-2,1.9-3,2.9l-0.9-1l-0.5-0.6l-1-1.2
					c-0.6-0.8-1.3-1.5-1.9-2.3c-0.2-0.2,0.1-0.5,0.3-0.3c0.7,0.7,1.5,1.4,2.2,2.1l1.1,1.1l0.5,0.5c0.1,0.1,0.1,0.1,0.1,0.1l0,0v-0.1
					c0,0,0.1-0.1,0.2-0.2L44,157l1.2-1.3c0.8-0.9,1.7-1.7,2.5-2.6c1.7-1.7,3.5-3.3,5.3-4.9C53.5,148.2,53.8,148.5,53.6,148.7z"/>
			</g>
		</g>
	</g>
</g>
<g>
	<g>
		<g>
			<g>
				<path class="st1" d="M120,47.2c-0.1-3.3-1.5-6.5-3.9-8.8c-2.3-2.3-5.5-3.6-8.8-3.6c-3.2,0-6.4,1.2-8.8,3.4
					c-2.3,2.2-3.8,5.3-3.9,8.5c-0.2,3.2,1,6.4,3.1,8.9c2.1,2.4,5.2,4,8.4,4.3c3.2,0.3,6.5-0.7,9.1-2.8c2.5-2,4.3-5.1,4.7-8.4
					c0.1-1,0.5-1,0.4,0c-0.3,3.4-2,6.7-4.6,8.9c-2.6,2.3-6.2,3.4-9.6,3.2c-3.5-0.2-6.9-1.9-9.2-4.5c-2.3-2.6-3.6-6.2-3.4-9.7
					s1.7-6.9,4.3-9.3c2.6-2.4,6.1-3.7,9.6-3.6c3.5,0.1,6.9,1.6,9.3,4.1s3.8,5.9,3.8,9.3C120.4,48.3,120,48.2,120,47.2z"/>
			</g>
		</g>
	</g>
	<g>
		<g>
			<g>
				<path class="st1" d="M114.5,42.7c-1.6,1.8-3.2,3.6-4.8,5.4c-0.8,0.9-1.7,1.7-2.5,2.6c-1,1-2,1.9-3,2.9l-0.9-1l-0.5-0.6l-1-1.2
					c-0.6-0.8-1.3-1.5-1.9-2.3c-0.2-0.2,0.1-0.5,0.3-0.3c0.7,0.7,1.5,1.4,2.2,2.1l1.1,1.1l0.5,0.5c0.1,0.1,0.1,0.1,0.1,0.1l0,0v-0.1
					c0,0,0.1-0.1,0.2-0.2l0.6-0.7l1.2-1.3c0.8-0.9,1.7-1.7,2.5-2.6c1.7-1.7,3.5-3.3,5.3-4.9C114.4,42.2,114.7,42.5,114.5,42.7z"/>
			</g>
		</g>
	</g>
</g>
<g>
	<g>
		<g>
			<g>
				<path class="st1" d="M239.7,100.1c-0.1-3.3-1.5-6.5-3.9-8.8c-2.3-2.3-5.5-3.6-8.8-3.6c-3.2,0-6.4,1.2-8.8,3.4
					c-2.3,2.2-3.8,5.3-3.9,8.5c-0.2,3.2,1,6.4,3.1,8.9c2.1,2.4,5.2,4,8.4,4.3s6.5-0.7,9.1-2.8c2.5-2,4.3-5.1,4.7-8.4
					c0.1-1,0.5-1,0.4,0c-0.3,3.4-2,6.7-4.6,8.9c-2.6,2.3-6.2,3.4-9.6,3.2c-3.5-0.2-6.9-1.9-9.2-4.5s-3.6-6.2-3.4-9.7
					c0.2-3.5,1.7-6.9,4.3-9.3s6.1-3.7,9.6-3.6s6.9,1.6,9.3,4.1c2.4,2.5,3.8,5.9,3.8,9.3C240.2,101.2,239.8,101.1,239.7,100.1z"/>
			</g>
		</g>
	</g>
	<g>
		<g>
			<g>
				<path class="st1" d="M234.3,95.6c-1.6,1.8-3.2,3.6-4.8,5.4c-0.8,0.9-1.7,1.7-2.5,2.6c-1,1-2,1.9-3,2.9l-0.9-1l-0.5-0.6l-1-1.2
					c-0.6-0.8-1.3-1.5-1.9-2.3c-0.2-0.2,0.1-0.5,0.3-0.3c0.7,0.7,1.5,1.4,2.2,2.1l1.1,1.1l0.5,0.5c0.1,0.1,0.1,0.1,0.1,0.1l0,0v-0.1
					c0,0,0.1-0.1,0.2-0.2l0.6-0.7l1.2-1.3c0.8-0.9,1.7-1.7,2.5-2.6c1.7-1.7,3.5-3.3,5.3-4.9C234.2,95.1,234.5,95.4,234.3,95.6z"/>
			</g>
		</g>
	</g>
</g>
</svg>
