<svg xmlns="http://www.w3.org/2000/svg" xmlns:xlink="http://www.w3.org/1999/xlink" width="72" height="72" viewBox="0 0 72 72"><defs><path id="42bta" d="M791.098 1893.83c19.51 0 35.325 15.816 35.325 35.325 0 19.51-15.816 35.325-35.325 35.325-19.51 0-35.325-15.816-35.325-35.325 0-19.51 15.816-35.325 35.325-35.325z"/><path id="42btb" d="M778.513 1918.3h7.131a1.784 1.784 0 0 1-.032-.338v-2.366c0-.747.454-1.353 1.014-1.353h10.14c.56 0 1.015.606 1.015 1.353v2.366c0 .117-.011.23-.032.338h7.13a3.042 3.042 0 0 1 3.043 3.042v18.254a3.042 3.042 0 0 1-3.042 3.042h-26.367a3.042 3.042 0 0 1-3.042-3.042v-18.254a3.042 3.042 0 0 1 3.042-3.042zm4.057 12.169a9.127 9.127 0 1 0 18.254 0 9.127 9.127 0 0 0-18.254 0zm9.127-6.084a6.084 6.084 0 1 1 0 12.168 6.085 6.085 0 0 1 0-12.168zm-2.029 6.084a2.028 2.028 0 1 0 4.057 0 2.028 2.028 0 0 0-4.057 0zm-2.028-13.183h8.113v-1.015h-8.113z"/></defs><g><g transform="translate(-755 -1893)"><use fill="#222" xlink:href="#42bta"/></g><g transform="translate(-755 -1893)"><use fill="#fff" xlink:href="#42btb"/></g></g></svg>