<svg xmlns="http://www.w3.org/2000/svg" xmlns:xlink="http://www.w3.org/1999/xlink" width="72" height="72" viewBox="0 0 72 72"><defs><path id="j5tqa" d="M304.986 1746.773c19.51 0 35.325 15.816 35.325 35.325 0 19.51-15.815 35.325-35.325 35.325-19.509 0-35.324-15.815-35.324-35.325 0-19.509 15.815-35.325 35.324-35.325z"/><path id="j5tqb" d="M321.146 1775.504c1.213 0 2.196.983 2.196 2.196v19.766a2.196 2.196 0 0 1-2.196 2.196H294.79a2.196 2.196 0 0 1-2.196-2.196v-1.098h26.355v-17.57h-5.49v-3.294zm-30.747-10.981h19.766c1.213 0 2.196.983 2.196 2.196v26.354a2.196 2.196 0 0 1-2.196 2.196h-19.766a2.196 2.196 0 0 1-2.196-2.196v-26.354c0-1.213.983-2.196 2.196-2.196zm1.098 26.354h17.57v-23.06h-17.57zm7.687 2.196a1.098 1.098 0 1 0 2.195 0 1.098 1.098 0 0 0-2.195 0zm20.864-5.49a1.098 1.098 0 1 0 2.195 0 1.098 1.098 0 0 0-2.195 0z"/></defs><g><g transform="translate(-269 -1746)"><use fill="#222" xlink:href="#j5tqa"/></g><g transform="translate(-269 -1746)"><use fill="#fff" xlink:href="#j5tqb"/></g></g></svg>