<svg xmlns="http://www.w3.org/2000/svg" viewBox="0 0 127 30" width="127" height="30"><path fill="#4D5E9F" d="M23.3 5.2h1.3V3.8c0-.6 0-1.4.4-1.9.4-.6 1-.9 2-.9 1.6 0 2.3.2 2.3.2L29 3.1s-.5-.2-1-.2-1 .2-1 .7v1.5h2.1l-.1 2h-1.9v6.7h-2.4V7.2h-1.3v-2h-.1z"/><path fill="#64A3D1" d="M80.4 3.3c-.5.2-1.1.4-1.7.5.6-.4 1.1-1 1.3-1.7-.6.3-1.2.6-1.9.7-.6-.6-1.4-.9-2.3-.9-1.7 0-3 1.3-3 3 0 .2 0 .5.1.7-2.5-.1-4.8-1.3-6.4-3.1-.4.4-.5 1-.5 1.5 0 1 .5 2 1.3 2.5-.5 0-1-.2-1.4-.4 0 1.5 1 2.7 2.4 2.9-.3.1-.5.1-.8.1-.2 0-.4 0-.6-.1.4 1.2 1.5 2.1 2.8 2.1-1 .8-2.3 1.3-3.7 1.3h-.7c1.3.9 2.9 1.3 4.7 1.3 5.7 0 8.7-4.7 8.7-8.7v-.1c.8-.4 1.3-1 1.7-1.6z"/><path fill="#455577" d="M0 2.4h5.3c1.7 0 3.1.8 3.1 2.6 0 1.4-.5 1.9-1.5 2.5.1.1.7.2.9.3.3.3.5.4.7.6.6.6.7 1.1.7 2.1 0 2.2-2.1 3.3-4.1 3.3H0V2.4zm2.8 3.2v1.5c1.3 0 2.5.2 2.5-1.2 0-1.3-1.4-1.1-2.5-1.1v.8zm0 6.2c1.4 0 3.2.2 3.2-1.4C6.2 8.7 4.2 9 2.8 9v2.8z"/><path fill="#D45543" d="M97.1 7.5c0-.9 1.8-1.1 1.8-3.2 0-1.2-.2-2-1.1-2.5 0-.3 1.7-.2 1.7-.8h-3.9s-3.9.2-3.9 3.4c0 3.2 3.4 2.9 3.4 2.9v.8c0 .3.5.2.5.9-.2 0-4.9-.2-4.9 2.8 0 3.1 3.9 2.8 3.9 2.8s4.9.5 4.9-3.2c.2-2.2-2.4-3-2.4-3.9zm-3.4-2.9c-.6-1.2.2-2.6 1.1-2.8.9-.3 2 .6 2.3 1.8.5 1.2-.2 2.6-1.1 2.8-.9.5-1.8-.4-2.3-1.8zm2 9.3c-1.5.2-2.9-.8-3-1.8-.2-1.1 1.1-2.2 2.8-2.3 1.5-.2 2.9.8 3.1 1.8-.1 1.1-1.3 2.3-2.9 2.3zM107 3.6v.8h-2.6v2.7h-.8V4.5h-2.8v-.9h2.8V1h.8v2.6h2.6z"/><path fill="#D86A43" d="M48.8 2.1c.8 0 1.5.7 1.5 1.5s-.7 1.5-1.5 1.5-1.5-.7-1.5-1.5.6-1.5 1.5-1.5zm0 5.4c2 0 3.7-1.7 3.7-3.7 0-2.1-1.7-3.7-3.7-3.7C46.6 0 45 1.7 45 3.7s1.7 3.7 3.8 3.8m1.5 3c.8-.2 1.5-.5 2.2-.9.5-.3.7-1 .4-1.5s-1-.7-1.5-.4c-1.5 1-3.5 1-5.1 0-.5-.3-1.2-.2-1.5.4s-.2 1.2.4 1.5c.7.4 1.4.7 2.2.9l-2.1 2.1c-.4.4-.4 1.1 0 1.5.2.2.5.3.8.3s.6-.1.8-.3l2-2 2 2c.4.4 1.1.4 1.5 0 .4-.4.4-1.1 0-1.5l-2.1-2.1"/><path fill="#47597B" d="M126.2 2.3h-10.1c-.4 0-.7.3-.7.7v10.1c0 .4.3.7.7.7h10.1c.4 0 .7-.3.7-.7V3c-.1-.3-.4-.7-.7-.7zm-6.5 4.5c.4-.4.9-.7 1.5-.7s1.1.3 1.5.7c.3.3.5.8.5 1.3 0 1.1-.9 1.9-1.9 1.9-1.1 0-1.9-.9-1.9-1.9-.3-.5-.1-.9.3-1.3zm5.9 5.8h-9.1V6.8h1.6c-.2.4-.3.8-.3 1.3 0 1.7 1.4 3.1 3.1 3.1s3.1-1.4 3.1-3.1c0-.5-.1-.9-.3-1.3h1.6v5.9h.3zm0-7.7c0 .3-.2.5-.5.5h-.7c-.3 0-.5-.2-.5-.5v-.8c0-.3.2-.5.5-.5h.7c.3 0 .5.2.5.5v.8z"/><path d="M23.3 20.3h1.3V19c0-.6 0-1.4.4-1.9.4-.6 1-.9 2-.9 1.6 0 2.3.2 2.3.2l-.3 1.9s-.5-.2-1-.2-1 .2-1 .7v1.5h2.1l-.1 2h-1.9V29h-2.4v-6.6h-1.3v-2l-.1-.1zm57.1-1.8c-.5.2-1.1.4-1.7.5.6-.4 1.1-1 1.3-1.7-.6.3-1.2.6-1.9.7-.6-.6-1.4-.9-2.3-.9-1.7 0-3 1.3-3 3 0 .2 0 .5.1.7-2.5-.1-4.8-1.3-6.4-3.1-.3.4-.4 1-.4 1.5 0 1 .5 2 1.3 2.5-.5 0-1-.2-1.4-.4 0 1.5 1 2.7 2.4 2.9-.3.1-.5.1-.8.1-.2 0-.4 0-.6-.1.4 1.2 1.5 2.1 2.8 2.1-1 .8-2.3 1.3-3.7 1.3h-.7c1.3.9 2.9 1.3 4.7 1.3 5.7 0 8.7-4.7 8.7-8.7V20c.7-.4 1.2-.9 1.6-1.5zM0 17.6h5.3c1.7 0 3.1.8 3.1 2.5 0 1.4-.5 1.9-1.5 2.5.1.2.7.3.9.4.3.3.5.4.7.6.6.6.7 1.1.7 2.1 0 2.2-2.1 3.3-4.1 3.3H0V17.6zm2.8 3.1v1.5c1.3 0 2.5.2 2.5-1.2 0-1.3-1.4-1.1-2.5-1.1v.8zm0 6.3c1.4 0 3.2.2 3.2-1.4.1-1.7-1.8-1.4-3.2-1.4V27zm94.3-4.3c0-.9 1.8-1.1 1.8-3.2 0-1.2-.2-2-1.1-2.5 0-.3 1.7-.2 1.7-.8h-3.9s-3.9.2-3.9 3.4c0 3.2 3.4 2.9 3.4 2.9v.8c0 .3.5.2.5.9-.2 0-4.9-.2-4.9 2.8 0 3.1 3.9 2.8 3.9 2.8s4.9.5 4.9-3.2c.2-2.2-2.4-3-2.4-3.9zm-3.4-3c-.6-1.2.2-2.6 1.1-2.8.9-.3 2 .6 2.3 1.8.5 1.2-.2 2.6-1.1 2.8-.9.5-1.8-.4-2.3-1.8zm2 9.3c-1.5.2-2.9-.8-3-1.8-.2-1.1 1.1-2.2 2.8-2.3 1.5-.2 2.9.8 3.1 1.8-.1 1.2-1.3 2.3-2.9 2.3zM107 18.8v.8h-2.6v2.7h-.8v-2.7h-2.8v-.8h2.8v-2.6h.8v2.6h2.6zm-58.2-1.5c.8 0 1.5.7 1.5 1.5s-.7 1.5-1.5 1.5-1.5-.7-1.5-1.5.6-1.5 1.5-1.5zm0 5.4c2 0 3.7-1.7 3.7-3.7 0-2.1-1.7-3.7-3.7-3.7-2.1 0-3.7 1.7-3.7 3.7s1.6 3.6 3.7 3.7m1.5 3c.8-.2 1.5-.5 2.2-.9.5-.3.7-1 .4-1.5-.3-.5-1-.7-1.5-.4-1.5 1-3.5 1-5.1 0-.5-.3-1.2-.2-1.5.4s-.2 1.2.4 1.5c.7.4 1.4.7 2.2.9l-2.1 2.1c-.4.4-.4 1.1 0 1.5.2.2.5.3.8.3s.6-.1.8-.3l2-2 2 2c.4.4 1.1.4 1.5 0s.4-1.1 0-1.5l-2.1-2.1m75.9-8.2h-10.1c-.4 0-.7.3-.7.7v10.1c0 .4.3.7.7.7h10.1c.4 0 .7-.3.7-.7V18.2c-.1-.3-.4-.7-.7-.7zm-6.5 4.4c.4-.4.9-.7 1.5-.7s1.1.3 1.5.7c.3.3.5.8.5 1.3 0 1.1-.9 1.9-1.9 1.9-1.1 0-1.9-.9-1.9-1.9-.3-.4-.1-.8.3-1.3zm5.9 5.9h-9.1v-5.9h1.6c-.2.4-.3.8-.3 1.3 0 1.7 1.4 3.1 3.1 3.1s3.1-1.4 3.1-3.1c0-.5-.1-.9-.3-1.3h1.6v5.9h.3zm0-7.8c0 .3-.2.5-.5.5h-.7c-.3 0-.5-.2-.5-.5v-.7c0-.3.2-.5.5-.5h.7c.3 0 .5.2.5.5v.7z" fill="#0D0F0F"/></svg>