<svg width="88" height="48" viewBox="0 0 88 48" xmlns="http://www.w3.org/2000/svg"><g fill="none"><path d="M6.656 0v14.072c2.142-2.554 4.71-3.841 7.688-3.841 1.534 0 2.91.291 4.14.874 1.236.577 2.16 1.319 2.782 2.219a8.092 8.092 0 0 1 1.28 2.998c.229 1.09.343 2.789.343 5.09V36.46h-6.656V22.908c0-2.688-.12-4.393-.373-5.116a3.32 3.32 0 0 0-1.338-1.724c-.64-.43-1.44-.646-2.402-.646-1.103 0-2.093.279-2.954.824-.875.551-1.509 1.375-1.908 2.478-.406 1.103-.61 2.732-.602 4.887L6.649 36.46H0V0h6.656zm26.21 0v14.072c2.142-2.554 4.71-3.841 7.688-3.841 1.528 0 2.91.291 4.146.874 1.23.577 2.155 1.319 2.776 2.219a8.105 8.105 0 0 1 1.28 2.998c.229 1.09.343 2.789.343 5.09V36.46h-6.65V22.908c0-2.688-.126-4.393-.38-5.116a3.317 3.317 0 0 0-1.337-1.724c-.634-.43-1.44-.646-2.403-.646-1.103 0-2.091.279-2.953.824-.868.551-1.502 1.375-1.908 2.478-.4 1.103-.602 2.732-.602 4.887V36.46h-6.65V0h6.65zM.02 47.762v-7.353h.888v3.024H4.38l-.007-3.024h.888v7.353h-.888v-3.467H.907v3.467H.019zm9.876-1.718l.85.114c-.135.552-.381.97-.743 1.268-.361.304-.824.456-1.388.456-.71 0-1.268-.24-1.686-.722-.412-.475-.621-1.154-.621-2.016 0-.894.21-1.59.628-2.085.418-.494.969-.742 1.635-.742.646 0 1.172.241 1.585.723.411.488.62 1.166.62 2.047l-.006.241H7.156c.032.583.184 1.033.45 1.344.273.31.609.469 1.015.469.297 0 .557-.089.772-.266.21-.172.381-.45.502-.83zM7.2 44.586h2.706c-.038-.444-.14-.786-.31-1.008a1.214 1.214 0 0 0-1.02-.52c-.375 0-.691.134-.945.413-.26.278-.4.653-.431 1.115zm7.682 2.517c-.298.285-.59.488-.874.602a2.24 2.24 0 0 1-.9.177c-.54 0-.945-.145-1.23-.43-.286-.286-.425-.654-.432-1.097 0-.26.057-.5.165-.71.108-.216.254-.393.425-.52.171-.133.374-.234.59-.298.158-.05.399-.089.728-.133.666-.089 1.148-.19 1.465-.317.006-.12.006-.203.006-.235 0-.367-.083-.62-.234-.773-.21-.203-.526-.304-.933-.304-.386 0-.672.07-.855.222-.184.145-.323.412-.406.786l-.805-.12c.07-.375.19-.68.362-.913.164-.235.405-.412.722-.539.317-.12.678-.184 1.097-.184.412 0 .748.05 1.007.158.26.108.451.241.571.4.12.165.21.368.254.621.025.152.044.431.044.83v1.205c0 .837.013 1.37.051 1.591.031.222.108.43.21.64h-.857a2.203 2.203 0 0 1-.171-.66zm-.063-2.016c-.298.133-.748.247-1.337.342-.343.05-.583.114-.723.184a.705.705 0 0 0-.317.292.807.807 0 0 0-.12.424c0 .241.088.444.253.602.165.165.405.241.722.241.324 0 .603-.07.85-.222a1.42 1.42 0 0 0 .54-.634c.088-.203.132-.5.132-.9v-.329zm5.19 2.675v-.672c-.303.526-.753.792-1.349.792-.387 0-.741-.114-1.065-.355a2.211 2.211 0 0 1-.748-.976c-.183-.418-.266-.9-.266-1.451 0-.526.076-1.015.235-1.446.165-.43.405-.76.73-.995a1.808 1.808 0 0 1 1.082-.342c.286 0 .546.063.774.203.228.133.412.31.557.532V40.41h.813v7.353h-.762zM17.425 45.1c-.006.684.128 1.198.388 1.534.266.336.57.507.925.507.361 0 .666-.165.913-.482.253-.33.38-.817.38-1.483 0-.729-.133-1.261-.387-1.604-.253-.336-.57-.507-.944-.507-.361 0-.665.165-.913.488-.24.33-.368.843-.362 1.547zm4.73 2.662v-7.353h.88v3.024h3.474v-3.024h.888v7.353h-.888v-3.467h-3.473v3.467h-.881zm9.736 0v-.786c-.374.608-.887.906-1.54.906a1.72 1.72 0 0 1-.8-.184 1.32 1.32 0 0 1-.55-.45 1.827 1.827 0 0 1-.254-.672 5.143 5.143 0 0 1-.05-.843v-3.296h.823v2.954c0 .47.02.786.05.95a.935.935 0 0 0 .324.559.94.94 0 0 0 .621.202c.248 0 .482-.07.697-.209.21-.133.368-.33.457-.564.09-.24.133-.583.133-1.04v-2.852h.818v5.325h-.73zm1.971 0v-5.325h.735v.755c.355-.584.875-.875 1.547-.875.285 0 .557.057.799.171.247.114.43.266.55.45.122.19.21.412.254.672.033.165.051.456.051.875v3.277h-.824v-3.24c0-.367-.031-.646-.094-.823a.86.86 0 0 0-.337-.438 1.042 1.042 0 0 0-.577-.164c-.348 0-.652.12-.906.367-.253.241-.38.704-.374 1.389l-.006 2.909h-.818zm6.935-.811l.12.798a2.566 2.566 0 0 1-.622.083c-.297 0-.526-.05-.69-.159a.83.83 0 0 1-.348-.405c-.064-.165-.096-.526-.096-1.065v-3.068h-.609v-.697h.61v-1.319l.816-.545-.006 1.864h.825v.697h-.825v3.119c0 .253.013.418.045.494a.38.38 0 0 0 .14.178.573.573 0 0 0 .285.063c.089 0 .209-.013.355-.038zm4.075-.907l.843.114c-.133.552-.38.97-.741 1.274-.362.298-.825.45-1.382.45-.71 0-1.274-.24-1.686-.722-.419-.475-.628-1.154-.628-2.016 0-.894.216-1.59.634-2.085.419-.494.963-.742 1.63-.742.646 0 1.178.241 1.59.723.406.488.615 1.166.615 2.047 0 .05-.006.133-.006.241h-3.613c.031.583.184 1.033.45 1.344.273.31.608.469 1.014.469.297 0 .558-.089.773-.266.21-.172.38-.45.507-.83zm-2.694-1.458h2.7c-.038-.444-.139-.786-.31-1.008-.26-.348-.602-.52-1.014-.52-.38 0-.697.134-.95.413-.26.278-.4.653-.426 1.115zm4.514 3.176v-5.325h.741v.805c.184-.38.355-.627.52-.748a.848.848 0 0 1 .52-.177c.285 0 .564.095.849.291l-.285.837a1.066 1.066 0 0 0-.602-.197.734.734 0 0 0-.482.178.962.962 0 0 0-.304.494 3.696 3.696 0 0 0-.133 1.053v2.789h-.824z" fill="#000"/><path d="M86.875 23.818c0 8.866-7.184 16.045-16.043 16.045-8.86 0-16.045-7.179-16.045-16.045 0-8.86 7.185-16.044 16.045-16.044 8.86 0 16.043 7.184 16.043 16.044z" fill="#D6001C"/><path d="M64.066 15.237h-2.932V30.33h2.932v-3.529l1.231-1.27 2.66 4.8h3.51l-4.03-6.855 3.928-4.329h-3.599l-3.7 4.24v-8.15zm7.712 3.91v2.349h5.49l-5.884 6.55v2.284h9.665v-2.349H75.02l5.801-6.422v-2.412h-9.043z" fill="#FFF"/></g></svg>