<svg xmlns="http://www.w3.org/2000/svg" width="30" height="30" viewBox="0 0 30 30"><path fill="#D6001C" d="M30 15c0 8.289-6.716 15.001-15 15.001-8.283 0-15-6.712-15-15.001 0-8.284 6.717-15 14.999-15 8.285 0 15.001 6.716 15.001 15z"/><path d="M8.455 7.739v5.147c.783-.934 1.722-1.405 2.812-1.405.561 0 1.064.107 1.515.32.452.211.791.482 1.018.811.23.332.385.696.469 1.097.084.398.125 1.021.125 1.862v5.503h-2.436v-4.956c0-.984-.043-1.607-.136-1.872-.093-.267-.255-.476-.489-.63-.234-.159-.526-.236-.878-.236-.404 0-.766.102-1.08.301-.321.202-.552.503-.698.906-.149.403-.223.999-.22 1.788l-.003 4.699h-2.433v-13.335h2.434zm9.587 0v5.147c.783-.934 1.722-1.405 2.812-1.405.559 0 1.064.107 1.518.32.449.211.787.482 1.015.811.229.332.385.696.469 1.097.083.398.125 1.021.125 1.862v5.503h-2.433v-4.956c0-.984-.046-1.607-.139-1.872-.093-.267-.255-.476-.489-.63-.232-.159-.526-.236-.879-.236-.403 0-.765.102-1.079.301-.317.202-.55.503-.698.906-.146.403-.22.999-.22 1.788v4.699h-2.434v-13.335h2.432z" fill="#fff"/></svg>